<svg xmlns="http://www.w3.org/2000/svg" xmlns:xlink="http://www.w3.org/1999/xlink" width="1248" height="1248" viewBox="0 0 1248 1248"><defs><style>.a{clip-path:url(#c);}.b{fill:url(#a);}</style><linearGradient id="a" x1="0.269" y1="0.118" x2="0.8" y2="0.816" gradientUnits="objectBoundingBox"><stop offset="0" stop-color="#7b00f7"/><stop offset="0.502" stop-color="#9c33aa"/><stop offset="1" stop-color="#2abdd2"/></linearGradient><clipPath id="c"><rect width="1248" height="1248"/></clipPath></defs><g id="b" class="a"><path class="b" d="M-2971.656,1187.775a81.52,81.52,0,0,1-16.281-6.829,121.381,121.381,0,0,1-16.037-10.613,180.225,180.225,0,0,1-15.665-13.765c-18.206-17.849-37.153-42.737-56.314-73.973-7.529-12.271-15.108-25.564-22.528-39.508-5.937-11.156-11.785-22.752-17.383-34.464-9.468-19.812-15.1-33.488-15.158-33.623V274c.056-.136,5.644-13.747,15.018-33.407,5.55-11.638,11.349-23.159,17.239-34.242,7.363-13.854,14.887-27.061,22.363-39.252,19.031-31.034,37.876-55.761,56.009-73.494a178.655,178.655,0,0,1,15.607-13.677,120.85,120.85,0,0,1,15.993-10.544A81.524,81.524,0,0,1-2972.54,62.6a59.415,59.415,0,0,1,16.382-2.4h.145V1190h5.3c-1.525.128-3.055.192-4.549.192A59.153,59.153,0,0,1-2971.656,1187.775Zm-795.1,2.225h5.312V60.2h.147a59.722,59.722,0,0,1,16.426,2.4,81.875,81.875,0,0,1,16.294,6.786,121.2,121.2,0,0,1,16.036,10.544A179.214,179.214,0,0,1-3696.9,93.606c18.18,17.733,37.074,42.46,56.156,73.494,7.5,12.19,15.039,25.4,22.422,39.252,5.906,11.085,11.721,22.606,17.284,34.241,9.334,19.523,14.828,32.848,15.057,33.4V975c-.23.557-5.727,13.858-15.2,33.624-5.613,11.713-11.477,23.31-17.429,34.464-7.438,13.942-15.037,27.234-22.586,39.507-19.212,31.236-38.21,56.125-56.465,73.974a181.016,181.016,0,0,1-15.706,13.765,121.584,121.584,0,0,1-16.08,10.612,81.8,81.8,0,0,1-16.323,6.83,59.436,59.436,0,0,1-16.436,2.416C-3763.7,1190.191-3765.239,1190.127-3766.76,1190Zm229.084-236.572V295.656l146.688,151.416c-.009.308-.013.62-.013.928V767a31.791,31.791,0,0,0,2.515,12.456,31.9,31.9,0,0,0,6.857,10.172,31.9,31.9,0,0,0,10.172,6.856A31.792,31.792,0,0,0-3359,799a31.788,31.788,0,0,0,12.456-2.515,31.9,31.9,0,0,0,10.171-6.856,31.9,31.9,0,0,0,6.858-10.172A31.8,31.8,0,0,0-3327,767V448c0-.409-.008-.818-.023-1.217l147.7-151.126V953.429l-179.963,201.923Zm166.526-41.875a32.4,32.4,0,0,0-10.331,6.965,32.4,32.4,0,0,0-6.965,10.331A32.284,32.284,0,0,0-3391,941.5a32.283,32.283,0,0,0,2.554,12.65,32.382,32.382,0,0,0,6.965,10.33,32.362,32.362,0,0,0,10.331,6.965A32.283,32.283,0,0,0-3358.5,974a32.287,32.287,0,0,0,12.651-2.554,32.376,32.376,0,0,0,10.33-6.965,32.361,32.361,0,0,0,6.965-10.33A32.3,32.3,0,0,0-3326,941.5a32.3,32.3,0,0,0-2.554-12.651,32.378,32.378,0,0,0-6.965-10.331,32.393,32.393,0,0,0-10.33-6.965A32.3,32.3,0,0,0-3358.5,909,32.3,32.3,0,0,0-3371.15,911.553Z" transform="translate(3983)"/></g></svg>